<svg width="819" height="551" viewBox="0 0 819 551" fill="none" xmlns="http://www.w3.org/2000/svg">
<g opacity="0.05">
<path d="M318.877 -65.556V556.056" stroke="white" stroke-width="0.5"/>
<path d="M46.4795 -65.556V556.056" stroke="white" stroke-width="0.5"/>
<path d="M373.357 -65.556V556.056" stroke="white" stroke-width="0.5"/>
<path d="M100.959 -65.556V556.056" stroke="white" stroke-width="0.5"/>
<path d="M427.836 -65.556V556.056" stroke="white" stroke-width="0.5"/>
<path d="M645.755 -65.556V556.056" stroke="white" stroke-width="0.5"/>
<path d="M155.439 -65.556V556.056" stroke="white" stroke-width="0.5"/>
<path d="M482.316 -65.556V556.056" stroke="white" stroke-width="0.5"/>
<path d="M700.234 -65.556V556.056" stroke="white" stroke-width="0.5"/>
<path d="M209.918 -65.556V556.056" stroke="white" stroke-width="0.5"/>
<path d="M536.796 -65.556V556.056" stroke="white" stroke-width="0.5"/>
<path d="M754.714 -65.556V556.056" stroke="white" stroke-width="0.5"/>
<path d="M264.398 -65.556V556.056" stroke="white" stroke-width="0.5"/>
<path d="M591.275 -65.556V556.056" stroke="white" stroke-width="0.5"/>
<path d="M809.194 -65.556V556.056" stroke="white" stroke-width="0.5"/>
<path d="M819 315.801L-7.99999 315.801" stroke="white" stroke-width="0.5"/>
<path d="M819 97.8827L-7.99999 97.8827" stroke="white" stroke-width="0.5"/>
<path d="M819 424.76L-7.99999 424.76" stroke="white" stroke-width="0.5"/>
<path d="M819 206.842L-7.99999 206.842" stroke="white" stroke-width="0.5"/>
<path d="M819 533.719H-7.99999" stroke="white" stroke-width="0.5"/>
<path d="M819 261.321L-7.99999 261.321" stroke="white" stroke-width="0.5"/>
<path d="M819 43.4031L-7.99999 43.4031" stroke="white" stroke-width="0.5"/>
<path d="M819 370.281L-7.99999 370.281" stroke="white" stroke-width="0.5"/>
<path d="M819 152.362L-7.99999 152.362" stroke="white" stroke-width="0.5"/>
<path d="M819 479.24L-7.99999 479.24" stroke="white" stroke-width="0.5"/>
</g>
</svg>
