<svg width="255" height="366" viewBox="0 0 255 366" fill="none" xmlns="http://www.w3.org/2000/svg">
<path d="M254 2L254 344" stroke="white" stroke-width="0.2"/>
<path d="M254 344L225.5 365.5H90.9998L85.9998 362.5H20.5" stroke="white" stroke-width="0.2"/>
<path d="M1 356H4V366H1V356Z" fill="white"/>
<path d="M11 363V366H1V363L11 363Z" fill="white"/>
<path d="M254 356H251V366H254V356Z" fill="white"/>
<path d="M244 363V366H254V363L244 363Z" fill="white"/>
<path d="M4.5 349V306.5L1 302V192.5L3 189V187" stroke="white" stroke-width="0.2"/>
<path d="M254 12L251 12L251 2L254 2L254 12Z" fill="white"/>
<path d="M244 5L244 2L254 2L254 5L244 5Z" fill="white"/>
<path d="M11 2L11 5L1 5L1 2L11 2Z" fill="white"/>
<path d="M4 12L1 12L1 2L4 2L4 12Z" fill="white"/>
<path d="M87 365.5L84 363.5" stroke="white" stroke-width="0.2"/>
<path d="M84 365.5L81 363.5" stroke="white" stroke-width="0.2"/>
<path d="M81 365.5L78 363.5" stroke="white" stroke-width="0.2"/>
<path d="M78 365.5L75 363.5" stroke="white" stroke-width="0.2"/>
<path d="M233 1H83.4998L78.4998 4L26 4" stroke="white" stroke-width="0.2"/>
<path d="M79.5 1L76.5 3" stroke="white" stroke-width="0.2"/>
<path d="M76.5 1L73.5 3" stroke="white" stroke-width="0.2"/>
<path d="M73.5 1L70.5 3" stroke="white" stroke-width="0.2"/>
<path d="M70.5 1L67.5 3" stroke="white" stroke-width="0.2"/>
<path d="M1 305L3 308" stroke="white" stroke-width="0.2"/>
<path d="M1 308L3 311" stroke="white" stroke-width="0.2"/>
<path d="M1 311L3 314" stroke="white" stroke-width="0.2"/>
<path d="M1 314L3 317" stroke="white" stroke-width="0.2"/>
<rect x="3" y="11" width="1" height="176" fill="white"/>
</svg>
