<svg width="334" height="175" viewBox="0 0 334 175" fill="none" xmlns="http://www.w3.org/2000/svg">
<path d="M72.0002 29L62.8 19H14" stroke="#5E5E5E" stroke-width="0.2"/>
<path d="M72.0002 102L62.8 92H14" stroke="#5E5E5E" stroke-width="0.2"/>
<path d="M72.0002 74L62.8 84H14" stroke="#5E5E5E" stroke-width="0.2"/>
<path d="M72.0002 1L62.8 11H14" stroke="#5E5E5E" stroke-width="0.2"/>
<path d="M60.5002 174L51.3 164H17" stroke="#5E5E5E" stroke-width="0.2"/>
<path d="M60.5002 146L51.3 156H17" stroke="#5E5E5E" stroke-width="0.2"/>
<path d="M1 88L56 88" stroke="#5E5E5E" stroke-width="0.2"/>
<path d="M56 15H1" stroke="#5E5E5E" stroke-width="0.2"/>
<path d="M56 160H1" stroke="#5E5E5E" stroke-width="0.2"/>
<path d="M1 15V160" stroke="#5E5E5E" stroke-width="0.2"/>
<path d="M262 102L271.2 92H320" stroke="#5E5E5E" stroke-width="0.2"/>
<path d="M262 29L271.2 19H320" stroke="#5E5E5E" stroke-width="0.2"/>
<path d="M262 74L271.2 84H320" stroke="#5E5E5E" stroke-width="0.2"/>
<path d="M262 1L271.2 11H320" stroke="#5E5E5E" stroke-width="0.2"/>
<path d="M272 146L281.2 156H315.5" stroke="#5E5E5E" stroke-width="0.2"/>
<path d="M272 174L281.2 164H315.5" stroke="#5E5E5E" stroke-width="0.2"/>
<path d="M333 88L278 88" stroke="#5E5E5E" stroke-width="0.2"/>
<path d="M333 15L279 15" stroke="#5E5E5E" stroke-width="0.2"/>
<path d="M333 160L278 160" stroke="#5E5E5E" stroke-width="0.2"/>
<path d="M333 15V160" stroke="#5E5E5E" stroke-width="0.2"/>
</svg>
