<svg width="503" height="503" viewBox="0 0 503 503" fill="none" xmlns="http://www.w3.org/2000/svg">
<g opacity="0.5" clip-path="url(#clip0_301_1836)">
<path d="M68.9045 421.76C25.3675 375.666 1.12502 314.816 1.08743 251.626C1.00625 115.153 113.976 2.79201 251.351 2.7103C319.818 2.66957 385.342 30.4956 432.635 79.703" stroke="white" stroke-miterlimit="10"/>
<path d="M414.42 423.704C370.36 464.848 312.111 487.789 251.639 487.825C121.111 487.903 13.665 381.289 13.5878 251.618C13.5107 121.947 120.83 15.2504 251.358 15.1728C316.424 15.134 378.766 41.6016 423.673 88.397" stroke="white" stroke-miterlimit="10"/>
<path d="M432.634 79.703L423.716 88.4408L432.634 79.703Z" stroke="white" stroke-width="0.5" stroke-linecap="round" stroke-linejoin="round"/>
<path d="M414.508 423.617L423.436 432.563" stroke="white" stroke-miterlimit="10"/>
</g>
<defs>
<clipPath id="clip0_301_1836">
<rect width="501" height="501" fill="white" transform="translate(0.849609 1.14789) rotate(-0.0340821)"/>
</clipPath>
</defs>
</svg>
