<svg width="270" height="270" viewBox="0 0 270 270" fill="none" xmlns="http://www.w3.org/2000/svg">
<path d="M135.357 0.372657C144.346 0.372657 153.382 1.27381 162.181 3.05241C171.051 4.85472 179.779 7.55819 188.08 11.0917C196.547 14.6963 204.658 19.1783 212.201 24.443C219.956 29.8499 227.166 36.1343 233.665 43.0827C246.045 56.3392 255.437 71.6351 261.627 88.5436C264.592 96.654 266.774 105.12 268.126 113.681C269.454 122.171 269.999 130.827 269.691 139.411C269.383 147.996 268.268 156.605 266.347 164.976C264.402 173.418 261.627 181.718 258.093 189.615C250.765 206.05 240.305 220.634 227.047 233.013C202.073 256.301 169.533 269.107 135.404 269.107C126.416 269.107 117.379 268.206 108.58 266.427C99.71 264.625 90.9821 261.921 82.6811 258.388C74.2141 254.783 66.1028 250.301 58.5608 245.036C50.8052 239.629 43.5952 233.345 37.0967 226.397C24.7164 213.14 15.3244 197.844 9.1342 180.936C6.16955 172.825 3.98757 164.359 2.63569 155.798C1.30753 147.308 0.762038 138.653 1.07036 130.068C1.37868 121.483 2.49339 112.875 4.41448 104.504C6.35929 96.0611 9.1342 87.761 12.6681 79.8641C19.9967 63.4298 30.4559 48.8453 43.7138 36.4663C68.688 13.2023 101.228 0.372657 135.357 0.372657ZM135.357 0.301514C102.509 0.301514 69.5892 12.2537 43.6901 36.4189C-10.6222 87.0496 -13.5868 172.138 37.0493 226.444C63.5414 254.83 99.4254 269.202 135.404 269.202C168.253 269.202 201.172 257.249 227.071 233.084C281.383 182.453 284.348 97.3654 233.712 43.059C207.22 14.6726 171.336 0.301514 135.357 0.301514Z" fill="white"/>
<path d="M135.358 7.15507C143.896 7.15507 152.458 8.0088 160.83 9.71625C169.25 11.4237 177.527 13.9849 185.425 17.3524C201.861 24.3482 216.423 34.5692 228.709 47.7545C240.449 60.347 249.39 74.884 255.248 90.9151C258.07 98.6224 260.134 106.662 261.438 114.796C262.719 122.859 263.217 131.064 262.932 139.245C262.648 147.403 261.581 155.585 259.754 163.529C257.904 171.545 255.272 179.418 251.928 186.912C244.955 202.516 235.041 216.365 222.447 228.128C198.73 250.23 167.827 262.419 135.429 262.419C126.891 262.419 118.329 261.565 109.957 259.858C101.537 258.151 93.2599 255.589 85.3621 252.222C68.9261 245.226 54.3638 235.005 42.0546 221.82C30.3146 209.227 21.3732 194.69 15.5151 178.659C12.6927 170.905 10.6056 162.865 9.32487 154.731C8.04415 146.668 7.54609 138.463 7.83069 130.281C8.1153 122.124 9.18257 113.942 11.0088 105.998C12.8587 97.9821 15.4913 90.1088 18.8355 82.615C25.8083 67.0108 35.7221 53.1614 48.3159 41.399C72.0568 19.3207 102.937 7.15507 135.358 7.15507ZM135.358 7.0365C104.17 7.0365 72.8869 18.3958 48.2684 41.3516C-3.34009 89.4448 -6.16243 170.264 41.9597 221.867C67.1236 248.831 101.205 262.49 135.405 262.49C166.593 262.49 197.876 251.131 222.495 228.175C274.08 180.058 276.902 99.2389 228.803 47.6596C203.64 20.6724 169.534 7.0365 135.358 7.0365Z" fill="white"/>
<path d="M230.771 229.005L226.312 224.594" stroke="white" stroke-width="0.5" stroke-linecap="round" stroke-linejoin="round"/>
<path d="M45.2557 44.2685L40.7969 39.8576" stroke="white" stroke-width="0.5" stroke-linecap="round" stroke-linejoin="round"/>
<path d="M227.83 46.6165L232.241 42.1581" stroke="white" stroke-width="0.5" stroke-linecap="round" stroke-linejoin="round"/>
<path d="M266.418 138.534C265.849 158.502 260.726 178.327 251.145 196.326" stroke="white" stroke-width="0.5" stroke-linecap="round" stroke-linejoin="round"/>
<path d="M28.9373 209.939C28.9847 209.939 29.0321 209.939 29.0796 209.939C29.3879 209.986 29.6725 210.129 29.886 210.39C30.0757 210.65 30.1706 210.959 30.1468 211.267C30.0757 211.86 29.5776 212.334 28.961 212.334C28.9136 212.334 28.8661 212.334 28.8187 212.334C28.5104 212.287 28.2258 212.144 28.0123 211.884C27.8226 211.623 27.7277 211.314 27.7514 211.006C27.8226 210.413 28.3206 209.939 28.9373 209.939ZM28.9373 209.702C28.2258 209.702 27.6091 210.247 27.5142 210.959C27.4194 211.741 27.9886 212.453 28.7712 212.548C28.8187 212.548 28.8898 212.548 28.9373 212.548C29.6488 212.548 30.2654 212.002 30.3603 211.291C30.4552 210.508 29.886 209.797 29.1033 209.702C29.0321 209.726 28.9847 209.702 28.9373 209.702Z" fill="white"/>
</svg>
