<svg width="415" height="55" viewBox="0 0 415 55" fill="none" xmlns="http://www.w3.org/2000/svg">
<g filter="url(#filter0_f_99_969)">
<line x1="1.72314" y1="1.31381" x2="413.447" y2="1.31381" stroke="#1E252A" stroke-width="0.393617"/>
<line x1="1.72314" y1="15.484" x2="413.447" y2="15.484" stroke="#1E252A" stroke-width="0.393617"/>
<line x1="1.72314" y1="29.6543" x2="413.447" y2="29.6543" stroke="#1E252A" stroke-width="0.393617"/>
<line x1="1.72314" y1="8.39896" x2="413.447" y2="8.39896" stroke="#1E252A" stroke-width="0.393617"/>
<line x1="1.72314" y1="22.5691" x2="413.447" y2="22.5691" stroke="#1E252A" stroke-width="0.393617"/>
<line x1="1.72314" y1="36.7393" x2="413.447" y2="36.7393" stroke="#1E252A" stroke-width="0.393617"/>
<line x1="1.72314" y1="43.8245" x2="413.447" y2="43.8245" stroke="#1E252A" stroke-width="0.393617"/>
<line x1="1.72314" y1="3.67551" x2="413.447" y2="3.67551" stroke="#1E252A" stroke-width="0.393617"/>
<line x1="1.72314" y1="17.8457" x2="413.447" y2="17.8457" stroke="#1E252A" stroke-width="0.393617"/>
<line x1="1.72314" y1="32.016" x2="413.447" y2="32.016" stroke="#1E252A" stroke-width="0.393617"/>
<line x1="1.72314" y1="10.7606" x2="413.447" y2="10.7606" stroke="#1E252A" stroke-width="0.393617"/>
<line x1="1.72314" y1="24.9309" x2="413.447" y2="24.9309" stroke="#1E252A" stroke-width="0.393617"/>
<line x1="1.72314" y1="39.101" x2="413.447" y2="39.101" stroke="#1E252A" stroke-width="0.393617"/>
<line x1="1.72314" y1="46.1862" x2="413.447" y2="46.1862" stroke="#1E252A" stroke-width="0.393617"/>
<line x1="1.72314" y1="6.03726" x2="413.447" y2="6.03726" stroke="#1E252A" stroke-width="0.393617"/>
<line x1="1.72314" y1="20.2074" x2="413.447" y2="20.2074" stroke="#1E252A" stroke-width="0.393617"/>
<line x1="1.72314" y1="34.3777" x2="413.447" y2="34.3777" stroke="#1E252A" stroke-width="0.393617"/>
<line x1="1.72314" y1="13.1223" x2="413.447" y2="13.1223" stroke="#1E252A" stroke-width="0.393617"/>
<line x1="1.72314" y1="27.2926" x2="413.447" y2="27.2926" stroke="#1E252A" stroke-width="0.393617"/>
<line x1="1.72314" y1="41.4627" x2="413.447" y2="41.4627" stroke="#1E252A" stroke-width="0.393617"/>
<line x1="1.72314" y1="48.5479" x2="413.447" y2="48.5479" stroke="#1E252A" stroke-width="0.393617"/>
<line x1="1.72314" y1="50.9096" x2="413.447" y2="50.9096" stroke="#1E252A" stroke-width="0.393617"/>
<line x1="1.72314" y1="53.2713" x2="413.447" y2="53.2713" stroke="#1E252A" stroke-width="0.393617"/>
</g>
<defs>
<filter id="filter0_f_99_969" x="0.93591" y="0.32977" width="413.298" height="53.9255" filterUnits="userSpaceOnUse" color-interpolation-filters="sRGB">
<feFlood flood-opacity="0" result="BackgroundImageFix"/>
<feBlend mode="normal" in="SourceGraphic" in2="BackgroundImageFix" result="shape"/>
<feGaussianBlur stdDeviation="0.393617" result="effect1_foregroundBlur_99_969"/>
</filter>
</defs>
</svg>
