<svg width="422" height="66" viewBox="0 0 422 66" fill="none" xmlns="http://www.w3.org/2000/svg">
<g filter="url(#filter0_f_803_5)">
<line x1="4.11572" y1="4.77418" x2="418" y2="4.77418" stroke="#57D6FF" stroke-width="0.157447"/>
<line x1="4.11572" y1="20.1271" x2="418" y2="20.1271" stroke="#57D6FF" stroke-width="0.157447"/>
<line x1="4.11572" y1="35.4801" x2="418" y2="35.4801" stroke="#57D6FF" stroke-width="0.157447"/>
<line x1="4.11572" y1="12.4507" x2="418" y2="12.4507" stroke="#57D6FF" stroke-width="0.157447"/>
<line x1="4.11572" y1="27.8037" x2="418" y2="27.8037" stroke="#57D6FF" stroke-width="0.157447"/>
<line x1="4.11572" y1="43.1565" x2="418" y2="43.1565" stroke="#57D6FF" stroke-width="0.157447"/>
<line x1="4.11572" y1="50.833" x2="418" y2="50.833" stroke="#57D6FF" stroke-width="0.157447"/>
<line x1="4.11572" y1="7.33302" x2="418" y2="7.33302" stroke="#57D6FF" stroke-width="0.157447"/>
<line x1="4.11572" y1="22.686" x2="418" y2="22.686" stroke="#57D6FF" stroke-width="0.157447"/>
<line x1="4.11572" y1="38.0389" x2="418" y2="38.0389" stroke="#57D6FF" stroke-width="0.157447"/>
<line x1="4.11572" y1="15.0095" x2="418" y2="15.0095" stroke="#57D6FF" stroke-width="0.157447"/>
<line x1="4.11572" y1="30.3624" x2="418" y2="30.3624" stroke="#57D6FF" stroke-width="0.157447"/>
<line x1="4.11572" y1="45.7154" x2="418" y2="45.7154" stroke="#57D6FF" stroke-width="0.157447"/>
<line x1="4.11572" y1="53.3919" x2="418" y2="53.3919" stroke="#57D6FF" stroke-width="0.157447"/>
<line x1="4.11572" y1="9.89192" x2="418" y2="9.89192" stroke="#57D6FF" stroke-width="0.157447"/>
<line x1="4.11572" y1="25.2448" x2="418" y2="25.2448" stroke="#57D6FF" stroke-width="0.157447"/>
<line x1="4.11572" y1="40.5977" x2="418" y2="40.5977" stroke="#57D6FF" stroke-width="0.157447"/>
<line x1="4.11572" y1="17.5684" x2="418" y2="17.5684" stroke="#57D6FF" stroke-width="0.157447"/>
<line x1="4.11572" y1="32.9213" x2="418" y2="32.9213" stroke="#57D6FF" stroke-width="0.157447"/>
<line x1="4.11572" y1="48.2741" x2="418" y2="48.2741" stroke="#57D6FF" stroke-width="0.157447"/>
<line x1="4.11572" y1="55.9506" x2="418" y2="55.9506" stroke="#57D6FF" stroke-width="0.157447"/>
<line x1="4.11572" y1="58.5094" x2="418" y2="58.5094" stroke="#57D6FF" stroke-width="0.157447"/>
<line x1="4.11572" y1="61.0683" x2="418" y2="61.0683" stroke="#57D6FF" stroke-width="0.157447"/>
</g>
<g opacity="0.41" filter="url(#filter1_f_803_5)">
<path d="M142.377 7.35179C141.654 5.78685 142.797 4.00006 144.521 4.00006H150.166C151.087 4.00006 151.924 4.53552 152.31 5.37174L176.909 58.6483C177.632 60.2132 176.489 62 174.765 62H169.12C168.199 62 167.362 61.4645 166.976 60.6283L142.377 7.35179Z" fill="#57D6FF"/>
</g>
<g opacity="0.41" filter="url(#filter2_f_803_5)">
<path d="M39.7546 7.35179C39.032 5.78685 40.1751 4.00006 41.8988 4.00006H47.5439C48.4649 4.00006 49.302 4.53552 49.6881 5.37174L74.2874 58.6483C75.01 60.2132 73.8669 62 72.1432 62H66.4981C65.5771 62 64.74 61.4645 64.3539 60.6283L39.7546 7.35179Z" fill="#57D6FF"/>
</g>
<g opacity="0.41" filter="url(#filter3_f_803_5)">
<path d="M244.999 7.35179C244.276 5.78685 245.419 4.00006 247.143 4.00006H252.788C253.709 4.00006 254.546 4.53552 254.932 5.37174L279.532 58.6483C280.254 60.2132 279.111 62 277.387 62H271.742C270.821 62 269.984 61.4645 269.598 60.6283L244.999 7.35179Z" fill="#57D6FF"/>
</g>
<g opacity="0.41" filter="url(#filter4_f_803_5)">
<path d="M313.413 7.35179C312.69 5.78685 313.833 4.00006 315.557 4.00006H321.202C322.123 4.00006 322.96 4.53552 323.346 5.37174L347.946 58.6483C348.668 60.2132 347.525 62 345.801 62H340.156C339.235 62 338.398 61.4645 338.012 60.6283L313.413 7.35179Z" fill="#57D6FF"/>
</g>
<g opacity="0.41" filter="url(#filter5_f_803_5)">
<path d="M210.791 7.35179C210.068 5.78685 211.211 4.00006 212.935 4.00006H218.58C219.501 4.00006 220.338 4.53552 220.724 5.37174L245.324 58.6483C246.046 60.2132 244.903 62 243.179 62H237.534C236.613 62 235.776 61.4645 235.39 60.6283L210.791 7.35179Z" fill="#57D6FF"/>
</g>
<g opacity="0.41" filter="url(#filter6_f_803_5)">
<path d="M5.54759 7.35179C4.82501 5.78685 5.96806 4.00006 7.69177 4.00006H13.3369C14.2579 4.00006 15.0949 4.53552 15.481 5.37174L40.0804 58.6483C40.8029 60.2132 39.6599 62 37.9362 62H32.2911C31.37 62 30.533 61.4645 30.1469 60.6283L5.54759 7.35179Z" fill="#57D6FF"/>
</g>
<g opacity="0.41" filter="url(#filter7_f_803_5)">
<path d="M73.9621 7.35179C73.2396 5.78685 74.3826 4.00006 76.1063 4.00006H81.7514C82.6725 4.00006 83.5095 4.53552 83.8956 5.37174L108.495 58.6483C109.217 60.2132 108.074 62 106.351 62H100.706C99.7846 62 98.9476 61.4645 98.5615 60.6283L73.9621 7.35179Z" fill="#57D6FF"/>
</g>
<g opacity="0.41" filter="url(#filter8_f_803_5)">
<path d="M108.17 7.35179C107.447 5.78685 108.59 4.00006 110.314 4.00006H115.959C116.88 4.00006 117.717 4.53552 118.103 5.37174L142.702 58.6483C143.425 60.2132 142.282 62 140.558 62H134.913C133.992 62 133.155 61.4645 132.769 60.6283L108.17 7.35179Z" fill="#57D6FF"/>
</g>
<g opacity="0.41" filter="url(#filter9_f_803_5)">
<path d="M381.827 7.35179C381.104 5.78685 382.247 4.00006 383.971 4.00006H389.616C390.537 4.00006 391.374 4.53552 391.76 5.37174L416.36 58.6483C417.082 60.2132 415.939 62 414.215 62H408.57C407.649 62 406.812 61.4645 406.426 60.6283L381.827 7.35179Z" fill="#57D6FF"/>
</g>
<g opacity="0.41" filter="url(#filter10_f_803_5)">
<path d="M176.584 7.35179C175.861 5.78685 177.004 4.00006 178.728 4.00006H184.373C185.294 4.00006 186.131 4.53552 186.517 5.37174L211.116 58.6483C211.839 60.2132 210.696 62 208.972 62H203.327C202.406 62 201.569 61.4645 201.183 60.6283L176.584 7.35179Z" fill="#57D6FF"/>
</g>
<g opacity="0.41" filter="url(#filter11_f_803_5)">
<path d="M279.205 7.35179C278.483 5.78685 279.626 4.00006 281.349 4.00006H286.995C287.916 4.00006 288.753 4.53552 289.139 5.37174L313.738 58.6483C314.461 60.2132 313.318 62 311.594 62H305.949C305.028 62 304.191 61.4645 303.805 60.6283L279.205 7.35179Z" fill="#57D6FF"/>
</g>
<g opacity="0.41" filter="url(#filter12_f_803_5)">
<path d="M347.62 7.35179C346.897 5.78685 348.04 4.00006 349.764 4.00006H355.409C356.33 4.00006 357.167 4.53552 357.553 5.37174L382.153 58.6483C382.875 60.2132 381.732 62 380.008 62H374.363C373.442 62 372.605 61.4645 372.219 60.6283L347.62 7.35179Z" fill="#57D6FF"/>
</g>
<g filter="url(#filter13_f_803_5)">
<line x1="4.11572" y1="3.80319" x2="418" y2="3.80319" stroke="#1E252A" stroke-width="0.393617"/>
<line x1="4.11572" y1="19.1561" x2="418" y2="19.1561" stroke="#1E252A" stroke-width="0.393617"/>
<line x1="4.11572" y1="34.5091" x2="418" y2="34.5091" stroke="#1E252A" stroke-width="0.393617"/>
<line x1="4.11572" y1="11.4797" x2="418" y2="11.4797" stroke="#1E252A" stroke-width="0.393617"/>
<line x1="4.11572" y1="26.8325" x2="418" y2="26.8326" stroke="#1E252A" stroke-width="0.393617"/>
<line x1="4.11572" y1="42.1855" x2="418" y2="42.1855" stroke="#1E252A" stroke-width="0.393617"/>
<line x1="4.11572" y1="49.862" x2="418" y2="49.862" stroke="#1E252A" stroke-width="0.393617"/>
<line x1="4.11572" y1="6.36203" x2="418" y2="6.36203" stroke="#1E252A" stroke-width="0.393617"/>
<line x1="4.11572" y1="21.7149" x2="418" y2="21.7149" stroke="#1E252A" stroke-width="0.393617"/>
<line x1="4.11572" y1="37.0678" x2="418" y2="37.0678" stroke="#1E252A" stroke-width="0.393617"/>
<line x1="4.11572" y1="14.0385" x2="418" y2="14.0385" stroke="#1E252A" stroke-width="0.393617"/>
<line x1="4.11572" y1="29.3914" x2="418" y2="29.3914" stroke="#1E252A" stroke-width="0.393617"/>
<line x1="4.11572" y1="44.7443" x2="418" y2="44.7443" stroke="#1E252A" stroke-width="0.393617"/>
<line x1="4.11572" y1="52.4208" x2="418" y2="52.4208" stroke="#1E252A" stroke-width="0.393617"/>
<line x1="4.11572" y1="8.92087" x2="418" y2="8.92087" stroke="#1E252A" stroke-width="0.393617"/>
<line x1="4.11572" y1="24.2738" x2="418" y2="24.2738" stroke="#1E252A" stroke-width="0.393617"/>
<line x1="4.11572" y1="39.6267" x2="418" y2="39.6267" stroke="#1E252A" stroke-width="0.393617"/>
<line x1="4.11572" y1="16.5974" x2="418" y2="16.5974" stroke="#1E252A" stroke-width="0.393617"/>
<line x1="4.11572" y1="31.9503" x2="418" y2="31.9503" stroke="#1E252A" stroke-width="0.393617"/>
<line x1="4.11572" y1="47.3031" x2="418" y2="47.3031" stroke="#1E252A" stroke-width="0.393617"/>
<line x1="4.11572" y1="54.9796" x2="418" y2="54.9796" stroke="#1E252A" stroke-width="0.393617"/>
<line x1="4.11572" y1="57.5385" x2="418" y2="57.5385" stroke="#1E252A" stroke-width="0.393617"/>
<line x1="4.11572" y1="60.0973" x2="418" y2="60.0973" stroke="#1E252A" stroke-width="0.393617"/>
</g>
<defs>
<filter id="filter0_f_803_5" x="0.966786" y="1.5465" width="420.182" height="62.7495" filterUnits="userSpaceOnUse" color-interpolation-filters="sRGB">
<feFlood flood-opacity="0" result="BackgroundImageFix"/>
<feBlend mode="normal" in="SourceGraphic" in2="BackgroundImageFix" result="shape"/>
<feGaussianBlur stdDeviation="1.57447" result="effect1_foregroundBlur_803_5"/>
</filter>
<filter id="filter1_f_803_5" x="139.007" y="0.851125" width="41.2715" height="64.2978" filterUnits="userSpaceOnUse" color-interpolation-filters="sRGB">
<feFlood flood-opacity="0" result="BackgroundImageFix"/>
<feBlend mode="normal" in="SourceGraphic" in2="BackgroundImageFix" result="shape"/>
<feGaussianBlur stdDeviation="1.57447" result="effect1_foregroundBlur_803_5"/>
</filter>
<filter id="filter2_f_803_5" x="36.3852" y="0.851125" width="41.2715" height="64.2978" filterUnits="userSpaceOnUse" color-interpolation-filters="sRGB">
<feFlood flood-opacity="0" result="BackgroundImageFix"/>
<feBlend mode="normal" in="SourceGraphic" in2="BackgroundImageFix" result="shape"/>
<feGaussianBlur stdDeviation="1.57447" result="effect1_foregroundBlur_803_5"/>
</filter>
<filter id="filter3_f_803_5" x="241.629" y="0.851125" width="41.2715" height="64.2978" filterUnits="userSpaceOnUse" color-interpolation-filters="sRGB">
<feFlood flood-opacity="0" result="BackgroundImageFix"/>
<feBlend mode="normal" in="SourceGraphic" in2="BackgroundImageFix" result="shape"/>
<feGaussianBlur stdDeviation="1.57447" result="effect1_foregroundBlur_803_5"/>
</filter>
<filter id="filter4_f_803_5" x="310.043" y="0.851125" width="41.2715" height="64.2978" filterUnits="userSpaceOnUse" color-interpolation-filters="sRGB">
<feFlood flood-opacity="0" result="BackgroundImageFix"/>
<feBlend mode="normal" in="SourceGraphic" in2="BackgroundImageFix" result="shape"/>
<feGaussianBlur stdDeviation="1.57447" result="effect1_foregroundBlur_803_5"/>
</filter>
<filter id="filter5_f_803_5" x="207.421" y="0.851125" width="41.2715" height="64.2978" filterUnits="userSpaceOnUse" color-interpolation-filters="sRGB">
<feFlood flood-opacity="0" result="BackgroundImageFix"/>
<feBlend mode="normal" in="SourceGraphic" in2="BackgroundImageFix" result="shape"/>
<feGaussianBlur stdDeviation="1.57447" result="effect1_foregroundBlur_803_5"/>
</filter>
<filter id="filter6_f_803_5" x="2.17821" y="0.851125" width="41.2715" height="64.2978" filterUnits="userSpaceOnUse" color-interpolation-filters="sRGB">
<feFlood flood-opacity="0" result="BackgroundImageFix"/>
<feBlend mode="normal" in="SourceGraphic" in2="BackgroundImageFix" result="shape"/>
<feGaussianBlur stdDeviation="1.57447" result="effect1_foregroundBlur_803_5"/>
</filter>
<filter id="filter7_f_803_5" x="70.5928" y="0.851125" width="41.2715" height="64.2978" filterUnits="userSpaceOnUse" color-interpolation-filters="sRGB">
<feFlood flood-opacity="0" result="BackgroundImageFix"/>
<feBlend mode="normal" in="SourceGraphic" in2="BackgroundImageFix" result="shape"/>
<feGaussianBlur stdDeviation="1.57447" result="effect1_foregroundBlur_803_5"/>
</filter>
<filter id="filter8_f_803_5" x="104.8" y="0.851125" width="41.2715" height="64.2978" filterUnits="userSpaceOnUse" color-interpolation-filters="sRGB">
<feFlood flood-opacity="0" result="BackgroundImageFix"/>
<feBlend mode="normal" in="SourceGraphic" in2="BackgroundImageFix" result="shape"/>
<feGaussianBlur stdDeviation="1.57447" result="effect1_foregroundBlur_803_5"/>
</filter>
<filter id="filter9_f_803_5" x="378.458" y="0.851125" width="41.2715" height="64.2978" filterUnits="userSpaceOnUse" color-interpolation-filters="sRGB">
<feFlood flood-opacity="0" result="BackgroundImageFix"/>
<feBlend mode="normal" in="SourceGraphic" in2="BackgroundImageFix" result="shape"/>
<feGaussianBlur stdDeviation="1.57447" result="effect1_foregroundBlur_803_5"/>
</filter>
<filter id="filter10_f_803_5" x="173.214" y="0.851125" width="41.2715" height="64.2978" filterUnits="userSpaceOnUse" color-interpolation-filters="sRGB">
<feFlood flood-opacity="0" result="BackgroundImageFix"/>
<feBlend mode="normal" in="SourceGraphic" in2="BackgroundImageFix" result="shape"/>
<feGaussianBlur stdDeviation="1.57447" result="effect1_foregroundBlur_803_5"/>
</filter>
<filter id="filter11_f_803_5" x="275.836" y="0.851125" width="41.2715" height="64.2978" filterUnits="userSpaceOnUse" color-interpolation-filters="sRGB">
<feFlood flood-opacity="0" result="BackgroundImageFix"/>
<feBlend mode="normal" in="SourceGraphic" in2="BackgroundImageFix" result="shape"/>
<feGaussianBlur stdDeviation="1.57447" result="effect1_foregroundBlur_803_5"/>
</filter>
<filter id="filter12_f_803_5" x="344.25" y="0.851125" width="41.2715" height="64.2978" filterUnits="userSpaceOnUse" color-interpolation-filters="sRGB">
<feFlood flood-opacity="0" result="BackgroundImageFix"/>
<feBlend mode="normal" in="SourceGraphic" in2="BackgroundImageFix" result="shape"/>
<feGaussianBlur stdDeviation="1.57447" result="effect1_foregroundBlur_803_5"/>
</filter>
<filter id="filter13_f_803_5" x="3.32849" y="2.81915" width="415.459" height="58.2622" filterUnits="userSpaceOnUse" color-interpolation-filters="sRGB">
<feFlood flood-opacity="0" result="BackgroundImageFix"/>
<feBlend mode="normal" in="SourceGraphic" in2="BackgroundImageFix" result="shape"/>
<feGaussianBlur stdDeviation="0.393617" result="effect1_foregroundBlur_803_5"/>
</filter>
</defs>
</svg>
