<svg width="271" height="270" viewBox="0 0 271 270" fill="none" xmlns="http://www.w3.org/2000/svg">
<path d="M212.142 24.525L212.17 24.4853L212.142 24.525C219.892 29.9278 227.097 36.2076 233.591 43.151C245.962 56.3976 255.347 71.682 261.532 88.578C264.495 96.6822 266.675 105.142 268.026 113.697C269.353 122.18 269.898 130.83 269.59 139.408C269.282 147.986 268.168 156.588 266.248 164.953C264.305 173.39 261.532 181.683 258.001 189.574L258.062 189.602L258.001 189.575C250.678 205.996 240.227 220.57 226.978 232.94C202.023 256.21 169.507 269.007 135.403 269.007C126.421 269.007 117.392 268.106 108.599 266.329C99.7355 264.528 91.014 261.826 82.7193 258.296C74.2586 254.694 66.1534 250.215 58.617 244.954L58.5782 245.01L58.617 244.954C50.8674 239.552 43.6627 233.272 37.1688 226.328C24.7976 213.082 15.4127 197.797 9.22712 180.901C6.26477 172.797 4.0844 164.337 2.73352 155.783C1.40631 147.299 0.861234 138.65 1.16932 130.071C1.47742 121.493 2.59133 112.891 4.51097 104.526C6.45434 96.0898 9.22718 87.7959 12.7584 79.9049L12.7584 79.9048C20.0815 63.483 30.5328 48.9095 43.7811 36.5394C68.7368 13.2926 101.252 0.472657 135.356 0.472657C144.338 0.472657 153.368 1.37315 162.16 3.15043C171.024 4.95139 179.745 7.65287 188.04 11.1837C196.501 14.7856 204.606 19.2643 212.142 24.525ZM135.356 0.201514C102.483 0.201514 69.5393 12.1626 43.6209 36.3458C-10.7318 87.0141 -13.6986 172.165 36.9752 226.512L37.0242 226.467L36.9752 226.512C63.4869 254.92 99.3979 269.302 135.403 269.302C168.276 269.302 201.22 257.34 227.138 233.157C281.491 182.489 284.458 97.3376 233.784 42.9908L233.747 43.0254L233.784 42.9907C207.272 14.5833 171.361 0.201514 135.356 0.201514Z" stroke="white" stroke-width="0.2"/>
<path d="M48.1983 41.2783C-3.45065 89.4092 -6.27518 170.292 41.8846 221.935C67.0682 248.92 101.177 262.59 135.403 262.59C166.616 262.59 197.923 251.222 222.561 228.248C274.186 180.094 277.011 99.211 228.875 47.5913C203.691 20.583 169.559 6.93638 135.356 6.93638C104.144 6.93638 72.836 18.3046 48.1983 41.2783ZM109.975 259.76L109.958 259.842L109.975 259.76C101.562 258.054 93.2908 255.495 85.3994 252.13L85.3643 252.212L85.3993 252.13C68.9763 245.139 54.4255 234.927 42.1257 221.751C30.3948 209.169 21.4605 194.643 15.607 178.625C12.7869 170.876 10.7014 162.843 9.4217 154.715L9.42168 154.715C8.14197 146.659 7.64429 138.46 7.92868 130.285C8.21306 122.133 9.27951 113.958 11.1043 106.02C12.9528 98.0107 15.5833 90.1435 18.9248 82.6556C25.8921 67.0638 35.798 53.2254 48.3822 41.4719C72.1046 19.4109 102.96 7.25495 135.356 7.25495C143.887 7.25495 152.443 8.10802 160.808 9.81411L160.828 9.71613L160.808 9.81413C169.221 11.5203 177.492 14.0794 185.384 17.4442L185.423 17.3522L185.384 17.4442C201.807 24.4345 216.357 34.6474 228.633 47.8225C240.364 60.4053 249.299 74.9309 255.152 90.9493C257.972 98.6504 260.034 106.683 261.338 114.811C262.617 122.868 263.115 131.067 262.831 139.242C262.546 147.393 261.48 155.569 259.655 163.507C257.806 171.516 255.176 179.383 251.834 186.871C244.867 202.463 234.961 216.301 222.377 228.055C198.678 250.139 167.799 262.319 135.427 262.319C126.896 262.319 118.34 261.466 109.975 259.76Z" stroke="white" stroke-width="0.2"/>
<path d="M230.77 229.005L226.312 224.594" stroke="white" stroke-width="0.5" stroke-linecap="round" stroke-linejoin="round"/>
<path d="M45.2547 44.2686L40.7959 39.8577" stroke="white" stroke-width="0.5" stroke-linecap="round" stroke-linejoin="round"/>
<path d="M227.829 46.6166L232.24 42.1582" stroke="white" stroke-width="0.5" stroke-linecap="round" stroke-linejoin="round"/>
<path d="M266.416 138.534C265.847 158.501 260.724 178.327 251.143 196.326" stroke="white" stroke-width="0.5" stroke-linecap="round" stroke-linejoin="round"/>
<path d="M28.9373 209.939C28.9847 209.939 29.0321 209.939 29.0796 209.939C29.3879 209.986 29.6725 210.129 29.886 210.39C30.0757 210.65 30.1706 210.959 30.1468 211.267C30.0757 211.86 29.5776 212.334 28.961 212.334C28.9136 212.334 28.8661 212.334 28.8187 212.334C28.5104 212.287 28.2258 212.144 28.0123 211.884C27.8226 211.623 27.7277 211.314 27.7514 211.006C27.8226 210.413 28.3206 209.939 28.9373 209.939ZM28.9373 209.702C28.2258 209.702 27.6091 210.247 27.5142 210.959C27.4194 211.741 27.9886 212.453 28.7712 212.548C28.8187 212.548 28.8898 212.548 28.9373 212.548C29.6488 212.548 30.2654 212.002 30.3603 211.291C30.4552 210.508 29.886 209.797 29.1033 209.702C29.0321 209.726 28.9847 209.702 28.9373 209.702Z" fill="white"/>
</svg>
