<svg width="13" height="10" viewBox="0 0 13 10" fill="none" xmlns="http://www.w3.org/2000/svg">
<path d="M7.01689 5.86047H5.00514C4.98306 5.86047 4.96298 5.87446 4.95495 5.89444L3.06367 9.92803C3.04962 9.96399 3.07572 10.0019 3.11386 9.99995H8.90415C8.9423 9.99995 8.96639 9.95999 8.95435 9.92603L7.06307 5.89244C7.05704 5.87446 7.03697 5.86047 7.01689 5.86047Z" fill="white"/>
<path d="M3.08985 8.85126L4.73017 5.37905C4.73418 5.36906 4.73619 5.35708 4.73218 5.34509L2.35904 0.280625C2.34298 0.220691 2.25464 0.228682 2.25464 0.292612L2.98947 8.83128C2.98545 8.88722 3.06777 8.9052 3.08985 8.85126Z" fill="white"/>
<path d="M0.148596 3.37516L1.69656 0.0228296C1.72868 -0.0211223 1.79493 0.00285138 1.79293 0.0567924L2.60806 9.33465C2.60606 9.39059 2.52776 9.40657 2.50567 9.35463L0.0582483 4.12435C-0.0441459 3.87662 -0.0100145 3.59293 0.148596 3.37516Z" fill="white"/>
<path d="M9.0325 8.83121L9.76733 0.292542C9.76733 0.23061 9.67898 0.22062 9.66292 0.280555L7.28979 5.34502C7.28577 5.35701 7.28778 5.36899 7.29179 5.37898L8.93211 8.85119C8.95419 8.90513 9.03651 8.88715 9.0325 8.83121Z" fill="white"/>
<path d="M11.9617 4.12432L9.51426 9.3546C9.49217 9.40854 9.41387 9.39256 9.41187 9.33462L10.227 0.0567632C10.225 0.00282216 10.2913 -0.0191538 10.3234 0.0228004L11.8733 3.37514C12.032 3.5929 12.0641 3.87659 11.9617 4.12432Z" fill="white"/>
</svg>
