<svg width="187" height="17" viewBox="0 0 187 17" fill="none" xmlns="http://www.w3.org/2000/svg">
<path d="M129 0H135V13L129 17V0Z" fill="#16191C"/>
<path d="M136 0H142V13L136 17V0Z" fill="#16191C"/>
<path d="M66 0H72V13L66 17V0Z" fill="#16191C"/>
<path d="M73 0H79V13L73 17V0Z" fill="#16191C"/>
<path d="M80 0H86V13L80 17V0Z" fill="#16191C"/>
<path d="M87 0H93V13L87 17V0Z" fill="#16191C"/>
<path d="M94 0H100V13L94 17V0Z" fill="#16191C"/>
<path d="M101 0H107V13L101 17V0Z" fill="#16191C"/>
<path d="M108 0H114V13L108 17V0Z" fill="#16191C"/>
<path d="M115 0H121V13L115 17V0Z" fill="#16191C"/>
<path d="M122 0H128V13L122 17V0Z" fill="#16191C"/>
<path d="M143 0H149V13L143 17V0Z" fill="#16191C"/>
<path d="M150 0H156V13L150 17V0Z" fill="#16191C"/>
<path d="M157 0H187V17H157V0Z" fill="#16191C"/>
<path d="M0 0H65V17H0V0Z" fill="#16191C"/>
</svg>
