<svg width="133" height="22" viewBox="0 0 133 22" fill="none" xmlns="http://www.w3.org/2000/svg">
<g opacity="0.41" filter="url(#filter0_f_245_1742)">
<path d="M44.5739 3.14975C44.3266 2.61265 44.7189 2 45.3102 2H46.9529C47.2694 2 47.5569 2.18413 47.6892 2.47156L55.4046 19.2251C55.6519 19.7622 55.2596 20.3749 54.6683 20.3749H53.0256C52.7091 20.3749 52.4216 20.1907 52.2893 19.9033L44.5739 3.14975Z" fill="#57D6FF"/>
</g>
<g opacity="0.41" filter="url(#filter1_f_245_1742)">
<path d="M12.1476 3.14975C11.9003 2.61265 12.2927 2 12.884 2H14.5266C14.8431 2 15.1306 2.18413 15.263 2.47156L22.9783 19.2251C23.2257 19.7622 22.8333 20.3749 22.242 20.3749H20.5993C20.2829 20.3749 19.9954 20.1907 19.863 19.9033L12.1476 3.14975Z" fill="#57D6FF"/>
</g>
<g opacity="0.41" filter="url(#filter2_f_245_1742)">
<path d="M77.0002 3.14975C76.7528 2.61265 77.1452 2 77.7365 2H79.3792C79.6956 2 79.9831 2.18413 80.1155 2.47156L87.8309 19.2251C88.0782 19.7622 87.6858 20.3749 87.0945 20.3749H85.4519C85.1354 20.3749 84.8479 20.1907 84.7155 19.9033L77.0002 3.14975Z" fill="#57D6FF"/>
</g>
<g opacity="0.41" filter="url(#filter3_f_245_1742)">
<path d="M98.6179 3.14975C98.3705 2.61265 98.7629 2 99.3542 2H100.997C101.313 2 101.601 2.18413 101.733 2.47156L109.449 19.2251C109.696 19.7622 109.304 20.3749 108.712 20.3749H107.07C106.753 20.3749 106.466 20.1907 106.333 19.9033L98.6179 3.14975Z" fill="#57D6FF"/>
</g>
<g opacity="0.41" filter="url(#filter4_f_245_1742)">
<path d="M66.1916 3.14975C65.9442 2.61265 66.3366 2 66.9279 2H68.5706C68.887 2 69.1745 2.18413 69.3069 2.47156L77.0223 19.2251C77.2696 19.7622 76.8772 20.3749 76.2859 20.3749H74.6433C74.3268 20.3749 74.0393 20.1907 73.9069 19.9033L66.1916 3.14975Z" fill="#57D6FF"/>
</g>
<g opacity="0.41" filter="url(#filter5_f_245_1742)">
<path d="M1.33905 3.14975C1.09171 2.61265 1.48407 2 2.07538 2H3.71805C4.03449 2 4.32201 2.18413 4.45438 2.47156L12.1697 19.2251C12.4171 19.7622 12.0247 20.3749 11.4334 20.3749H9.79072C9.47428 20.3749 9.18676 20.1907 9.05439 19.9033L1.33905 3.14975Z" fill="#57D6FF"/>
</g>
<g opacity="0.41" filter="url(#filter6_f_245_1742)">
<path d="M22.9567 3.14975C22.7094 2.61265 23.1017 2 23.6931 2H25.3357C25.6522 2 25.9397 2.18413 26.0721 2.47156L33.7874 19.2251C34.0347 19.7622 33.6424 20.3749 33.0511 20.3749H31.4084C31.092 20.3749 30.8044 20.1907 30.6721 19.9033L22.9567 3.14975Z" fill="#57D6FF"/>
</g>
<g opacity="0.41" filter="url(#filter7_f_245_1742)">
<path d="M33.7653 3.14975C33.518 2.61265 33.9103 2 34.5017 2H36.1443C36.4608 2 36.7483 2.18413 36.8806 2.47156L44.596 19.2251C44.8433 19.7622 44.451 20.3749 43.8597 20.3749H42.217C41.9005 20.3749 41.613 20.1907 41.4807 19.9033L33.7653 3.14975Z" fill="#57D6FF"/>
</g>
<g opacity="0.41" filter="url(#filter8_f_245_1742)">
<path d="M120.236 3.14975C119.988 2.61265 120.381 2 120.972 2H122.615C122.931 2 123.218 2.18413 123.351 2.47156L131.066 19.2251C131.314 19.7622 130.921 20.3749 130.33 20.3749H128.687C128.371 20.3749 128.083 20.1907 127.951 19.9033L120.236 3.14975Z" fill="#57D6FF"/>
</g>
<g opacity="0.41" filter="url(#filter9_f_245_1742)">
<path d="M55.383 3.14975C55.1357 2.61265 55.528 2 56.1193 2H57.762C58.0784 2 58.366 2.18413 58.4983 2.47156L66.2137 19.2251C66.461 19.7622 66.0686 20.3749 65.4773 20.3749H63.8347C63.5182 20.3749 63.2307 20.1907 63.0983 19.9033L55.383 3.14975Z" fill="#57D6FF"/>
</g>
<g opacity="0.41" filter="url(#filter10_f_245_1742)">
<path d="M87.8093 3.14975C87.5619 2.61265 87.9543 2 88.5456 2H90.1883C90.5047 2 90.7922 2.18413 90.9246 2.47156L98.6399 19.2251C98.8873 19.7622 98.4949 20.3749 97.9036 20.3749H96.2609C95.9445 20.3749 95.657 20.1907 95.5246 19.9033L87.8093 3.14975Z" fill="#57D6FF"/>
</g>
<g opacity="0.41" filter="url(#filter11_f_245_1742)">
<path d="M109.426 3.14975C109.179 2.61265 109.571 2 110.163 2H111.805C112.122 2 112.409 2.18413 112.542 2.47156L120.257 19.2251C120.504 19.7622 120.112 20.3749 119.521 20.3749H117.878C117.562 20.3749 117.274 20.1907 117.142 19.9033L109.426 3.14975Z" fill="#57D6FF"/>
</g>
<defs>
<filter id="filter0_f_245_1742" x="43.4177" y="0.919125" width="13.1432" height="20.5366" filterUnits="userSpaceOnUse" color-interpolation-filters="sRGB">
<feFlood flood-opacity="0" result="BackgroundImageFix"/>
<feBlend mode="normal" in="SourceGraphic" in2="BackgroundImageFix" result="shape"/>
<feGaussianBlur stdDeviation="0.540438" result="effect1_foregroundBlur_245_1742"/>
</filter>
<filter id="filter1_f_245_1742" x="10.9914" y="0.919125" width="13.1432" height="20.5366" filterUnits="userSpaceOnUse" color-interpolation-filters="sRGB">
<feFlood flood-opacity="0" result="BackgroundImageFix"/>
<feBlend mode="normal" in="SourceGraphic" in2="BackgroundImageFix" result="shape"/>
<feGaussianBlur stdDeviation="0.540438" result="effect1_foregroundBlur_245_1742"/>
</filter>
<filter id="filter2_f_245_1742" x="75.8439" y="0.919125" width="13.1432" height="20.5366" filterUnits="userSpaceOnUse" color-interpolation-filters="sRGB">
<feFlood flood-opacity="0" result="BackgroundImageFix"/>
<feBlend mode="normal" in="SourceGraphic" in2="BackgroundImageFix" result="shape"/>
<feGaussianBlur stdDeviation="0.540438" result="effect1_foregroundBlur_245_1742"/>
</filter>
<filter id="filter3_f_245_1742" x="97.4616" y="0.919125" width="13.1432" height="20.5366" filterUnits="userSpaceOnUse" color-interpolation-filters="sRGB">
<feFlood flood-opacity="0" result="BackgroundImageFix"/>
<feBlend mode="normal" in="SourceGraphic" in2="BackgroundImageFix" result="shape"/>
<feGaussianBlur stdDeviation="0.540438" result="effect1_foregroundBlur_245_1742"/>
</filter>
<filter id="filter4_f_245_1742" x="65.0353" y="0.919125" width="13.1432" height="20.5366" filterUnits="userSpaceOnUse" color-interpolation-filters="sRGB">
<feFlood flood-opacity="0" result="BackgroundImageFix"/>
<feBlend mode="normal" in="SourceGraphic" in2="BackgroundImageFix" result="shape"/>
<feGaussianBlur stdDeviation="0.540438" result="effect1_foregroundBlur_245_1742"/>
</filter>
<filter id="filter5_f_245_1742" x="0.182796" y="0.919125" width="13.1432" height="20.5366" filterUnits="userSpaceOnUse" color-interpolation-filters="sRGB">
<feFlood flood-opacity="0" result="BackgroundImageFix"/>
<feBlend mode="normal" in="SourceGraphic" in2="BackgroundImageFix" result="shape"/>
<feGaussianBlur stdDeviation="0.540438" result="effect1_foregroundBlur_245_1742"/>
</filter>
<filter id="filter6_f_245_1742" x="21.8005" y="0.919125" width="13.1432" height="20.5366" filterUnits="userSpaceOnUse" color-interpolation-filters="sRGB">
<feFlood flood-opacity="0" result="BackgroundImageFix"/>
<feBlend mode="normal" in="SourceGraphic" in2="BackgroundImageFix" result="shape"/>
<feGaussianBlur stdDeviation="0.540438" result="effect1_foregroundBlur_245_1742"/>
</filter>
<filter id="filter7_f_245_1742" x="32.6091" y="0.919125" width="13.1432" height="20.5366" filterUnits="userSpaceOnUse" color-interpolation-filters="sRGB">
<feFlood flood-opacity="0" result="BackgroundImageFix"/>
<feBlend mode="normal" in="SourceGraphic" in2="BackgroundImageFix" result="shape"/>
<feGaussianBlur stdDeviation="0.540438" result="effect1_foregroundBlur_245_1742"/>
</filter>
<filter id="filter8_f_245_1742" x="119.079" y="0.919125" width="13.1432" height="20.5366" filterUnits="userSpaceOnUse" color-interpolation-filters="sRGB">
<feFlood flood-opacity="0" result="BackgroundImageFix"/>
<feBlend mode="normal" in="SourceGraphic" in2="BackgroundImageFix" result="shape"/>
<feGaussianBlur stdDeviation="0.540438" result="effect1_foregroundBlur_245_1742"/>
</filter>
<filter id="filter9_f_245_1742" x="54.2267" y="0.919125" width="13.1432" height="20.5366" filterUnits="userSpaceOnUse" color-interpolation-filters="sRGB">
<feFlood flood-opacity="0" result="BackgroundImageFix"/>
<feBlend mode="normal" in="SourceGraphic" in2="BackgroundImageFix" result="shape"/>
<feGaussianBlur stdDeviation="0.540438" result="effect1_foregroundBlur_245_1742"/>
</filter>
<filter id="filter10_f_245_1742" x="86.653" y="0.919125" width="13.1432" height="20.5366" filterUnits="userSpaceOnUse" color-interpolation-filters="sRGB">
<feFlood flood-opacity="0" result="BackgroundImageFix"/>
<feBlend mode="normal" in="SourceGraphic" in2="BackgroundImageFix" result="shape"/>
<feGaussianBlur stdDeviation="0.540438" result="effect1_foregroundBlur_245_1742"/>
</filter>
<filter id="filter11_f_245_1742" x="108.27" y="0.919125" width="13.1432" height="20.5366" filterUnits="userSpaceOnUse" color-interpolation-filters="sRGB">
<feFlood flood-opacity="0" result="BackgroundImageFix"/>
<feBlend mode="normal" in="SourceGraphic" in2="BackgroundImageFix" result="shape"/>
<feGaussianBlur stdDeviation="0.540438" result="effect1_foregroundBlur_245_1742"/>
</filter>
</defs>
</svg>
