<svg width="422" height="66" viewBox="0 0 422 66" fill="none" xmlns="http://www.w3.org/2000/svg">
<line x1="53.5317" y1="1.96808" x2="-0.000175442" y2="1.96808" stroke="#57D6FF" stroke-width="0.787234"/>
<line x1="368.425" y1="62.9786" x2="421.957" y2="62.9786" stroke="#57D6FF" stroke-width="1.57447"/>
<line x1="0.393373" y1="1.57446" x2="0.393374" y2="19.6808" stroke="#57D6FF" stroke-width="0.787234"/>
<line x1="0.393373" y1="44.0852" x2="0.393374" y2="62.1916" stroke="#57D6FF" stroke-width="0.787234"/>
<line x1="421.17" y1="62.1914" x2="421.17" y2="29.9148" stroke="#57D6FF" stroke-width="1.57447"/>
<line x1="155.872" y1="62.585" x2="-0.000274658" y2="62.585" stroke="#57D6FF" stroke-width="0.787234"/>
<line x1="421.959" y1="0.393614" x2="40.9376" y2="1.96808" stroke="#57D6FF" stroke-width="0.787234"/>
<rect width="22.8298" height="2.3617" fill="#57D6FF"/>
<rect x="184.213" width="52.7447" height="2.3617" fill="#57D6FF"/>
<path d="M140.915 63.3199C140.915 62.6966 141.42 62.1914 142.043 62.1914H155.872C156.742 62.1914 157.447 62.8963 157.447 63.7659V63.7659C157.447 64.6354 156.742 65.3403 155.872 65.3403H145.528C145.079 65.3403 144.632 65.2748 144.202 65.1458L141.719 64.4008C141.242 64.2576 140.915 63.8182 140.915 63.3199V63.3199Z" fill="#57D6FF"/>
<line x1="421.564" y1="1.72055e-08" x2="421.564" y2="15.7447" stroke="#57D6FF" stroke-width="0.787234"/>
</svg>
