<svg width="18" height="14" viewBox="0 0 18 14" fill="none" xmlns="http://www.w3.org/2000/svg">
<path d="M9.44646 4.86957H17.5C17.7761 4.86957 18 5.09342 18 5.36957V8.63043C18 8.90658 17.7761 9.13043 17.5 9.13043H9.03584C8.60598 9.13043 8.3765 9.63697 8.65995 9.96014L11.4756 13.1703C11.7591 13.4935 11.5296 14 11.0997 14H7.22996C7.09387 14 6.96366 13.9445 6.86938 13.8464L0.339918 7.04949C0.151158 6.853 0.154471 6.54155 0.347368 6.34912L6.56549 0.146019C6.65922 0.0525126 6.78622 0 6.91862 0H11.9095C12.3552 0 12.5782 0.539174 12.2626 0.853981L9.09334 4.01558C8.77777 4.33039 9.00072 4.86957 9.44646 4.86957Z" fill="white"/>
</svg>
