<svg width="18" height="14" viewBox="0 0 18 14" fill="none" xmlns="http://www.w3.org/2000/svg">
<path d="M8.55354 9.13043L0.5 9.13043C0.223858 9.13043 4.45281e-07 8.90658 4.69422e-07 8.63043L7.54497e-07 5.36956C7.78638e-07 5.09342 0.223859 4.86956 0.500001 4.86956L8.96416 4.86957C9.39402 4.86957 9.6235 4.36303 9.34005 4.03986L6.52436 0.829702C6.24091 0.506538 6.47039 -5.42763e-08 6.90025 -1.66966e-08L10.77 3.21611e-07C10.9061 3.33509e-07 11.0363 0.0554718 11.1306 0.153612L17.6601 6.95051C17.8488 7.147 17.8455 7.45845 17.6526 7.65088L11.4345 13.854C11.3408 13.9475 11.2138 14 11.0814 14L6.09053 14C5.64479 14 5.42184 13.4608 5.73741 13.146L8.90666 9.98441C9.22223 9.66961 8.99928 9.13043 8.55354 9.13043Z" fill="white"/>
</svg>
