<svg width="194" height="29" viewBox="0 0 194 29" fill="none" xmlns="http://www.w3.org/2000/svg">
<g opacity="0.41" filter="url(#filter0_f_158_1202)">
<path d="M1.75647 20.3477C1.71125 20.2492 1.68622 20.1428 1.68283 20.0345L1.44136 12.3074C1.41393 11.4296 2.60685 11.1409 2.9838 11.9341L9.59321 25.8414C9.84885 26.3793 9.45659 27 8.86103 27H5.33262C5.01592 27 4.72822 26.8156 4.596 26.5278L1.75647 20.3477Z" fill="#FF6157"/>
</g>
<g opacity="0.41" filter="url(#filter1_f_158_1202)">
<path d="M182.161 3.20133C181.864 2.66106 182.254 2 182.871 2H185.99C186.302 2 186.586 2.17879 186.721 2.45986L192.42 14.3337C192.473 14.4432 192.5 14.563 192.5 14.6845V18.8439C192.5 19.6823 191.383 19.9692 190.979 19.2346L182.161 3.20133Z" fill="#FF6157"/>
</g>
<g opacity="0.41" filter="url(#filter2_f_158_1202)">
<path d="M67.6584 3.14975C67.411 2.61265 67.8034 2 68.3947 2H71.2732C71.5897 2 71.8772 2.18413 72.0096 2.47156L82.7759 25.8503C83.0232 26.3873 82.6309 27 82.0396 27H79.1611C78.8446 27 78.5571 26.8159 78.4247 26.5284L67.6584 3.14975Z" fill="#FF6157"/>
</g>
<g opacity="0.41" filter="url(#filter3_f_158_1202)">
<path d="M23.5407 3.14975C23.2934 2.61265 23.6857 2 24.277 2H27.1556C27.472 2 27.7595 2.18413 27.8919 2.47156L38.6582 25.8503C38.9056 26.3873 38.5132 27 37.9219 27H35.0434C34.7269 27 34.4394 26.8159 34.307 26.5284L23.5407 3.14975Z" fill="#FF6157"/>
</g>
<g opacity="0.41" filter="url(#filter4_f_158_1202)">
<path d="M111.776 3.14975C111.529 2.61265 111.921 2 112.512 2H115.391C115.707 2 115.995 2.18413 116.127 2.47156L126.894 25.8503C127.141 26.3873 126.749 27 126.157 27H123.279C122.962 27 122.675 26.8159 122.542 26.5284L111.776 3.14975Z" fill="#FF6157"/>
</g>
<g opacity="0.41" filter="url(#filter5_f_158_1202)">
<path d="M141.188 3.14975C140.941 2.61265 141.333 2 141.925 2H144.803C145.119 2 145.407 2.18413 145.539 2.47156L156.306 25.8503C156.553 26.3873 156.161 27 155.569 27H152.691C152.374 27 152.087 26.8159 151.955 26.5284L141.188 3.14975Z" fill="#FF6157"/>
</g>
<g opacity="0.41" filter="url(#filter6_f_158_1202)">
<path d="M97.0705 3.14975C96.8232 2.61265 97.2155 2 97.8068 2H100.685C101.002 2 101.289 2.18413 101.422 2.47156L112.188 25.8503C112.435 26.3873 112.043 27 111.452 27H108.573C108.257 27 107.969 26.8159 107.837 26.5284L97.0705 3.14975Z" fill="#FF6157"/>
</g>
<g opacity="0.41" filter="url(#filter7_f_158_1202)">
<path d="M8.83515 3.14975C8.5878 2.61265 8.98016 2 9.57147 2H12.45C12.7664 2 13.0539 2.18413 13.1863 2.47156L23.9527 25.8503C24.2 26.3873 23.8076 27 23.2163 27H20.3378C20.0214 27 19.7339 26.8159 19.6015 26.5284L8.83515 3.14975Z" fill="#FF6157"/>
</g>
<g opacity="0.41" filter="url(#filter8_f_158_1202)">
<path d="M38.2463 3.14975C37.9989 2.61265 38.3913 2 38.9826 2H41.8611C42.1776 2 42.4651 2.18413 42.5974 2.47156L53.3638 25.8503C53.6111 26.3873 53.2188 27 52.6275 27H49.7489C49.4325 27 49.145 26.8159 49.0126 26.5284L38.2463 3.14975Z" fill="#FF6157"/>
</g>
<g opacity="0.41" filter="url(#filter9_f_158_1202)">
<path d="M52.9528 3.14975C52.7055 2.61265 53.0978 2 53.6892 2H56.5677C56.8841 2 57.1716 2.18413 57.304 2.47156L68.0703 25.8503C68.3177 26.3873 67.9253 27 67.334 27H64.4555C64.139 27 63.8515 26.8159 63.7192 26.5284L52.9528 3.14975Z" fill="#FF6157"/>
</g>
<g opacity="0.41" filter="url(#filter10_f_158_1202)">
<path d="M170.6 3.14975C170.352 2.61265 170.745 2 171.336 2H174.215C174.531 2 174.819 2.18413 174.951 2.47156L185.717 25.8503C185.965 26.3873 185.572 27 184.981 27H182.102C181.786 27 181.498 26.8159 181.366 26.5284L170.6 3.14975Z" fill="#FF6157"/>
</g>
<g opacity="0.41" filter="url(#filter11_f_158_1202)">
<path d="M82.364 3.14975C82.1166 2.61265 82.509 2 83.1003 2H85.9788C86.2952 2 86.5828 2.18413 86.7151 2.47156L97.4815 25.8503C97.7288 26.3873 97.3364 27 96.7451 27H93.8666C93.5502 27 93.2627 26.8159 93.1303 26.5284L82.364 3.14975Z" fill="#FF6157"/>
</g>
<g opacity="0.41" filter="url(#filter12_f_158_1202)">
<path d="M126.482 3.14975C126.234 2.61265 126.627 2 127.218 2H130.096C130.413 2 130.7 2.18413 130.833 2.47156L141.599 25.8503C141.846 26.3873 141.454 27 140.863 27H137.984C137.668 27 137.38 26.8159 137.248 26.5284L126.482 3.14975Z" fill="#FF6157"/>
</g>
<g opacity="0.41" filter="url(#filter13_f_158_1202)">
<path d="M155.894 3.14975C155.646 2.61265 156.039 2 156.63 2H159.509C159.825 2 160.113 2.18413 160.245 2.47156L171.011 25.8503C171.259 26.3873 170.866 27 170.275 27H167.396C167.08 27 166.792 26.8159 166.66 26.5284L155.894 3.14975Z" fill="#FF6157"/>
</g>
<defs>
<filter id="filter0_f_158_1202" x="0.360043" y="10.3891" width="10.3937" height="17.6918" filterUnits="userSpaceOnUse" color-interpolation-filters="sRGB">
<feFlood flood-opacity="0" result="BackgroundImageFix"/>
<feBlend mode="normal" in="SourceGraphic" in2="BackgroundImageFix" result="shape"/>
<feGaussianBlur stdDeviation="0.540438" result="effect1_foregroundBlur_158_1202"/>
</filter>
<filter id="filter1_f_158_1202" x="180.979" y="0.919125" width="12.6022" height="19.8176" filterUnits="userSpaceOnUse" color-interpolation-filters="sRGB">
<feFlood flood-opacity="0" result="BackgroundImageFix"/>
<feBlend mode="normal" in="SourceGraphic" in2="BackgroundImageFix" result="shape"/>
<feGaussianBlur stdDeviation="0.540438" result="effect1_foregroundBlur_158_1202"/>
</filter>
<filter id="filter2_f_158_1202" x="66.5021" y="0.919125" width="17.4298" height="27.1618" filterUnits="userSpaceOnUse" color-interpolation-filters="sRGB">
<feFlood flood-opacity="0" result="BackgroundImageFix"/>
<feBlend mode="normal" in="SourceGraphic" in2="BackgroundImageFix" result="shape"/>
<feGaussianBlur stdDeviation="0.540438" result="effect1_foregroundBlur_158_1202"/>
</filter>
<filter id="filter3_f_158_1202" x="22.3845" y="0.919125" width="17.4298" height="27.1618" filterUnits="userSpaceOnUse" color-interpolation-filters="sRGB">
<feFlood flood-opacity="0" result="BackgroundImageFix"/>
<feBlend mode="normal" in="SourceGraphic" in2="BackgroundImageFix" result="shape"/>
<feGaussianBlur stdDeviation="0.540438" result="effect1_foregroundBlur_158_1202"/>
</filter>
<filter id="filter4_f_158_1202" x="110.62" y="0.919125" width="17.4298" height="27.1618" filterUnits="userSpaceOnUse" color-interpolation-filters="sRGB">
<feFlood flood-opacity="0" result="BackgroundImageFix"/>
<feBlend mode="normal" in="SourceGraphic" in2="BackgroundImageFix" result="shape"/>
<feGaussianBlur stdDeviation="0.540438" result="effect1_foregroundBlur_158_1202"/>
</filter>
<filter id="filter5_f_158_1202" x="140.032" y="0.919125" width="17.4298" height="27.1618" filterUnits="userSpaceOnUse" color-interpolation-filters="sRGB">
<feFlood flood-opacity="0" result="BackgroundImageFix"/>
<feBlend mode="normal" in="SourceGraphic" in2="BackgroundImageFix" result="shape"/>
<feGaussianBlur stdDeviation="0.540438" result="effect1_foregroundBlur_158_1202"/>
</filter>
<filter id="filter6_f_158_1202" x="95.9142" y="0.919125" width="17.4298" height="27.1618" filterUnits="userSpaceOnUse" color-interpolation-filters="sRGB">
<feFlood flood-opacity="0" result="BackgroundImageFix"/>
<feBlend mode="normal" in="SourceGraphic" in2="BackgroundImageFix" result="shape"/>
<feGaussianBlur stdDeviation="0.540438" result="effect1_foregroundBlur_158_1202"/>
</filter>
<filter id="filter7_f_158_1202" x="7.67889" y="0.919125" width="17.4298" height="27.1618" filterUnits="userSpaceOnUse" color-interpolation-filters="sRGB">
<feFlood flood-opacity="0" result="BackgroundImageFix"/>
<feBlend mode="normal" in="SourceGraphic" in2="BackgroundImageFix" result="shape"/>
<feGaussianBlur stdDeviation="0.540438" result="effect1_foregroundBlur_158_1202"/>
</filter>
<filter id="filter8_f_158_1202" x="37.09" y="0.919125" width="17.4298" height="27.1618" filterUnits="userSpaceOnUse" color-interpolation-filters="sRGB">
<feFlood flood-opacity="0" result="BackgroundImageFix"/>
<feBlend mode="normal" in="SourceGraphic" in2="BackgroundImageFix" result="shape"/>
<feGaussianBlur stdDeviation="0.540438" result="effect1_foregroundBlur_158_1202"/>
</filter>
<filter id="filter9_f_158_1202" x="51.7966" y="0.919125" width="17.4298" height="27.1618" filterUnits="userSpaceOnUse" color-interpolation-filters="sRGB">
<feFlood flood-opacity="0" result="BackgroundImageFix"/>
<feBlend mode="normal" in="SourceGraphic" in2="BackgroundImageFix" result="shape"/>
<feGaussianBlur stdDeviation="0.540438" result="effect1_foregroundBlur_158_1202"/>
</filter>
<filter id="filter10_f_158_1202" x="169.444" y="0.919125" width="17.4303" height="27.1618" filterUnits="userSpaceOnUse" color-interpolation-filters="sRGB">
<feFlood flood-opacity="0" result="BackgroundImageFix"/>
<feBlend mode="normal" in="SourceGraphic" in2="BackgroundImageFix" result="shape"/>
<feGaussianBlur stdDeviation="0.540438" result="effect1_foregroundBlur_158_1202"/>
</filter>
<filter id="filter11_f_158_1202" x="81.2077" y="0.919125" width="17.4298" height="27.1618" filterUnits="userSpaceOnUse" color-interpolation-filters="sRGB">
<feFlood flood-opacity="0" result="BackgroundImageFix"/>
<feBlend mode="normal" in="SourceGraphic" in2="BackgroundImageFix" result="shape"/>
<feGaussianBlur stdDeviation="0.540438" result="effect1_foregroundBlur_158_1202"/>
</filter>
<filter id="filter12_f_158_1202" x="125.325" y="0.919125" width="17.4298" height="27.1618" filterUnits="userSpaceOnUse" color-interpolation-filters="sRGB">
<feFlood flood-opacity="0" result="BackgroundImageFix"/>
<feBlend mode="normal" in="SourceGraphic" in2="BackgroundImageFix" result="shape"/>
<feGaussianBlur stdDeviation="0.540438" result="effect1_foregroundBlur_158_1202"/>
</filter>
<filter id="filter13_f_158_1202" x="154.737" y="0.919125" width="17.4303" height="27.1618" filterUnits="userSpaceOnUse" color-interpolation-filters="sRGB">
<feFlood flood-opacity="0" result="BackgroundImageFix"/>
<feBlend mode="normal" in="SourceGraphic" in2="BackgroundImageFix" result="shape"/>
<feGaussianBlur stdDeviation="0.540438" result="effect1_foregroundBlur_158_1202"/>
</filter>
</defs>
</svg>
