<svg width="19" height="16" viewBox="0 0 19 16" fill="none" xmlns="http://www.w3.org/2000/svg">
<path d="M9.44646 5.86957H17.5C17.7761 5.86957 18 6.09342 18 6.36957V9.63043C18 9.90658 17.7761 10.1304 17.5 10.1304H9.03584C8.60598 10.1304 8.3765 10.637 8.65995 10.9601L11.4756 14.1703C11.7591 14.4935 11.5296 15 11.0997 15H7.22996C7.09387 15 6.96366 14.9445 6.86938 14.8464L0.339918 8.04949C0.151158 7.853 0.154471 7.54155 0.347368 7.34912L6.56549 1.14602C6.65922 1.05251 6.78622 1 6.91862 1H11.9095C12.3552 1 12.5782 1.53917 12.2626 1.85398L9.09334 5.01558C8.77777 5.33039 9.00072 5.86957 9.44646 5.86957Z" stroke="white" stroke-width="0.2"/>
</svg>
