<svg width="804" height="551" viewBox="0 0 804 551" fill="none" xmlns="http://www.w3.org/2000/svg">
<g style="mix-blend-mode:overlay">
<circle cx="1.18584" cy="244.841" r="1.18584" fill="#D9D9D9"/>
<circle cx="1.18584" cy="121.513" r="1.18584" fill="#D9D9D9"/>
<circle cx="1.18584" cy="368.168" r="1.18584" fill="#D9D9D9"/>
<circle cx="1.18584" cy="491.496" r="1.18584" fill="#D9D9D9"/>
<circle cx="186.177" cy="244.841" r="1.18584" fill="#D9D9D9"/>
<circle cx="432.832" cy="244.841" r="1.18584" fill="#D9D9D9"/>
<circle cx="679.487" cy="244.841" r="1.18584" fill="#D9D9D9"/>
<circle cx="186.177" cy="121.513" r="1.18584" fill="#D9D9D9"/>
<circle cx="186.177" cy="368.168" r="1.18584" fill="#D9D9D9"/>
<circle cx="186.177" cy="491.496" r="1.18584" fill="#D9D9D9"/>
<circle cx="432.832" cy="121.513" r="1.18584" fill="#D9D9D9"/>
<circle cx="679.487" cy="121.513" r="1.18584" fill="#D9D9D9"/>
<circle cx="432.832" cy="368.168" r="1.18584" fill="#D9D9D9"/>
<circle cx="432.832" cy="491.496" r="1.18584" fill="#D9D9D9"/>
<circle cx="679.487" cy="368.168" r="1.18584" fill="#D9D9D9"/>
<circle cx="679.487" cy="491.496" r="1.18584" fill="#D9D9D9"/>
<circle cx="1.18584" cy="59.8495" r="1.18584" fill="#D9D9D9"/>
<circle cx="1.18584" cy="306.504" r="1.18584" fill="#D9D9D9"/>
<circle cx="1.18584" cy="183.177" r="1.18584" fill="#D9D9D9"/>
<circle cx="1.18584" cy="429.832" r="1.18584" fill="#D9D9D9"/>
<circle cx="186.177" cy="59.8495" r="1.18584" fill="#D9D9D9"/>
<circle cx="186.177" cy="306.504" r="1.18584" fill="#D9D9D9"/>
<circle cx="432.832" cy="59.8495" r="1.18584" fill="#D9D9D9"/>
<circle cx="679.487" cy="59.8495" r="1.18584" fill="#D9D9D9"/>
<circle cx="432.832" cy="306.504" r="1.18584" fill="#D9D9D9"/>
<circle cx="679.487" cy="306.504" r="1.18584" fill="#D9D9D9"/>
<circle cx="186.177" cy="183.177" r="1.18584" fill="#D9D9D9"/>
<circle cx="186.177" cy="429.832" r="1.18584" fill="#D9D9D9"/>
<circle cx="432.832" cy="183.177" r="1.18584" fill="#D9D9D9"/>
<circle cx="679.487" cy="183.177" r="1.18584" fill="#D9D9D9"/>
<circle cx="432.832" cy="429.832" r="1.18584" fill="#D9D9D9"/>
<circle cx="679.487" cy="429.832" r="1.18584" fill="#D9D9D9"/>
<circle cx="62.8494" cy="244.841" r="1.18584" fill="#D9D9D9"/>
<circle cx="62.8494" cy="121.513" r="1.18584" fill="#D9D9D9"/>
<circle cx="62.8494" cy="368.168" r="1.18584" fill="#D9D9D9"/>
<circle cx="62.8494" cy="491.496" r="1.18584" fill="#D9D9D9"/>
<circle cx="247.841" cy="244.841" r="1.18584" fill="#D9D9D9"/>
<circle cx="494.495" cy="244.841" r="1.18584" fill="#D9D9D9"/>
<circle cx="741.151" cy="244.841" r="1.18584" fill="#D9D9D9"/>
<circle cx="247.841" cy="121.513" r="1.18584" fill="#D9D9D9"/>
<circle cx="247.841" cy="368.168" r="1.18584" fill="#D9D9D9"/>
<circle cx="247.841" cy="491.496" r="1.18584" fill="#D9D9D9"/>
<circle cx="494.495" cy="121.513" r="1.18584" fill="#D9D9D9"/>
<circle cx="741.151" cy="121.513" r="1.18584" fill="#D9D9D9"/>
<circle cx="494.495" cy="368.168" r="1.18584" fill="#D9D9D9"/>
<circle cx="494.495" cy="491.496" r="1.18584" fill="#D9D9D9"/>
<circle cx="741.151" cy="368.168" r="1.18584" fill="#D9D9D9"/>
<circle cx="741.151" cy="491.496" r="1.18584" fill="#D9D9D9"/>
<circle cx="62.8494" cy="59.8495" r="1.18584" fill="#D9D9D9"/>
<circle cx="62.8494" cy="306.504" r="1.18584" fill="#D9D9D9"/>
<circle cx="62.8494" cy="183.177" r="1.18584" fill="#D9D9D9"/>
<circle cx="62.8494" cy="429.832" r="1.18584" fill="#D9D9D9"/>
<circle cx="247.841" cy="59.8495" r="1.18584" fill="#D9D9D9"/>
<circle cx="247.841" cy="306.504" r="1.18584" fill="#D9D9D9"/>
<circle cx="494.495" cy="59.8495" r="1.18584" fill="#D9D9D9"/>
<circle cx="741.151" cy="59.8495" r="1.18584" fill="#D9D9D9"/>
<circle cx="494.495" cy="306.504" r="1.18584" fill="#D9D9D9"/>
<circle cx="741.151" cy="306.504" r="1.18584" fill="#D9D9D9"/>
<circle cx="247.841" cy="183.177" r="1.18584" fill="#D9D9D9"/>
<circle cx="494.495" cy="183.177" r="1.18584" fill="#D9D9D9"/>
<circle cx="741.151" cy="183.177" r="1.18584" fill="#D9D9D9"/>
<circle cx="494.495" cy="429.832" r="1.18584" fill="#D9D9D9"/>
<circle cx="741.151" cy="429.832" r="1.18584" fill="#D9D9D9"/>
<circle cx="124.513" cy="244.841" r="1.18584" fill="#D9D9D9"/>
<circle cx="371.168" cy="244.841" r="1.18584" fill="#D9D9D9"/>
<circle cx="617.823" cy="244.841" r="1.18584" fill="#D9D9D9"/>
<circle cx="124.513" cy="121.513" r="1.18584" fill="#D9D9D9"/>
<circle cx="124.513" cy="368.168" r="1.18584" fill="#D9D9D9"/>
<circle cx="124.513" cy="491.496" r="1.18584" fill="#D9D9D9"/>
<circle cx="371.168" cy="121.513" r="1.18584" fill="#D9D9D9"/>
<circle cx="617.823" cy="121.513" r="1.18584" fill="#D9D9D9"/>
<circle cx="371.168" cy="368.168" r="1.18584" fill="#D9D9D9"/>
<circle cx="371.168" cy="491.496" r="1.18584" fill="#D9D9D9"/>
<circle cx="617.823" cy="368.168" r="1.18584" fill="#D9D9D9"/>
<circle cx="617.823" cy="491.496" r="1.18584" fill="#D9D9D9"/>
<circle cx="309.504" cy="244.841" r="1.18584" fill="#D9D9D9"/>
<circle cx="556.159" cy="244.841" r="1.18584" fill="#D9D9D9"/>
<circle cx="802.814" cy="244.841" r="1.18584" fill="#D9D9D9"/>
<circle cx="309.504" cy="121.513" r="1.18584" fill="#D9D9D9"/>
<circle cx="309.504" cy="368.168" r="1.18584" fill="#D9D9D9"/>
<circle cx="309.504" cy="491.496" r="1.18584" fill="#D9D9D9"/>
<circle cx="556.159" cy="121.513" r="1.18584" fill="#D9D9D9"/>
<circle cx="802.814" cy="121.513" r="1.18584" fill="#D9D9D9"/>
<circle cx="556.159" cy="368.168" r="1.18584" fill="#D9D9D9"/>
<circle cx="556.159" cy="491.496" r="1.18584" fill="#D9D9D9"/>
<circle cx="802.814" cy="368.168" r="1.18584" fill="#D9D9D9"/>
<circle cx="802.814" cy="491.496" r="1.18584" fill="#D9D9D9"/>
<circle cx="124.513" cy="59.8495" r="1.18584" fill="#D9D9D9"/>
<circle cx="124.513" cy="306.504" r="1.18584" fill="#D9D9D9"/>
<circle cx="371.168" cy="59.8495" r="1.18584" fill="#D9D9D9"/>
<circle cx="617.823" cy="59.8495" r="1.18584" fill="#D9D9D9"/>
<circle cx="371.168" cy="306.504" r="1.18584" fill="#D9D9D9"/>
<circle cx="617.823" cy="306.504" r="1.18584" fill="#D9D9D9"/>
<circle cx="124.513" cy="183.177" r="1.18584" fill="#D9D9D9"/>
<circle cx="124.513" cy="429.832" r="1.18584" fill="#D9D9D9"/>
<circle cx="371.168" cy="183.177" r="1.18584" fill="#D9D9D9"/>
<circle cx="617.823" cy="183.177" r="1.18584" fill="#D9D9D9"/>
<circle cx="371.168" cy="429.832" r="1.18584" fill="#D9D9D9"/>
<circle cx="617.823" cy="429.832" r="1.18584" fill="#D9D9D9"/>
<circle cx="309.504" cy="59.8495" r="1.18584" fill="#D9D9D9"/>
<circle cx="309.504" cy="306.504" r="1.18584" fill="#D9D9D9"/>
<circle cx="556.159" cy="59.8495" r="1.18584" fill="#D9D9D9"/>
<circle cx="802.814" cy="59.8495" r="1.18584" fill="#D9D9D9"/>
<circle cx="556.159" cy="306.504" r="1.18584" fill="#D9D9D9"/>
<circle cx="802.814" cy="306.504" r="1.18584" fill="#D9D9D9"/>
<circle cx="309.504" cy="183.177" r="1.18584" fill="#D9D9D9"/>
<circle cx="309.504" cy="429.832" r="1.18584" fill="#D9D9D9"/>
<circle cx="556.159" cy="183.177" r="1.18584" fill="#D9D9D9"/>
<circle cx="802.814" cy="183.177" r="1.18584" fill="#D9D9D9"/>
<circle cx="556.159" cy="429.832" r="1.18584" fill="#D9D9D9"/>
<circle cx="802.814" cy="429.832" r="1.18584" fill="#D9D9D9"/>
</g>
</svg>
