<svg width="819" height="551" viewBox="0 0 819 551" fill="none" xmlns="http://www.w3.org/2000/svg">
<g opacity="0.2">
<path d="M742.855 406.409L819.75 -486.173C819.75 -492.647 810.506 -493.691 808.825 -487.426L560.492 41.9833C560.072 43.2364 560.282 44.4895 560.702 45.5337L732.35 408.498C734.661 414.136 743.275 412.257 742.855 406.409Z" fill="black"/>
<path d="M75.8775 406.409L-1.01743 -486.173C-1.01743 -492.647 8.22681 -493.691 9.90756 -487.426L258.24 41.9833C258.66 43.2364 258.45 44.4895 258.03 45.5337L86.3822 408.498C84.0712 414.136 75.4573 412.257 75.8775 406.409Z" fill="black"/>
<path d="M1049.58 -85.8267L793.785 461.082C791.476 466.723 783.293 465.051 783.083 458.993L868.277 -511.154C868.067 -516.794 874.991 -519.092 878.349 -514.705L1040.34 -164.165C1056.92 -141.395 1060.28 -111.731 1049.58 -85.8267Z" fill="black"/>
<path d="M-230.844 -85.8267L24.9473 461.082C27.2555 466.723 35.4391 465.051 35.6489 458.993L-49.5447 -511.154C-49.3349 -516.794 -56.2595 -519.092 -59.6168 -514.705L-221.611 -164.165C-238.188 -141.395 -241.545 -111.731 -230.844 -85.8267Z" fill="black"/>
<path d="M535.217 32.9989H284.108C281.352 32.9989 278.846 34.7489 277.843 37.2491L41.7713 542.022C40.0171 546.522 43.275 551.273 48.0365 551.023H770.787C775.549 551.023 778.556 546.022 777.053 541.772L540.981 36.9991C540.229 34.749 537.723 32.9989 535.217 32.9989Z" fill="black"/>
</g>
</svg>
