<svg width="207" height="17" viewBox="0 0 207 17" fill="none" xmlns="http://www.w3.org/2000/svg">
<path d="M74.5 0H142.5V13L136.5 17H70L74.5 13V0Z" fill="#16191C"/>
<path d="M144.5 0H150.5V13L144.5 17V0Z" fill="#16191C"/>
<path d="M48 0H54V13L48 17V0Z" fill="#16191C"/>
<path d="M16 0H22V13L16 17V0Z" fill="#16191C"/>
<path d="M56 0H62V13L56 17V0Z" fill="#16191C"/>
<path d="M152.5 0H158.5V13L152.5 17V0Z" fill="#16191C"/>
<path d="M64 0H70V13L64 17V0Z" fill="#16191C"/>
<path d="M24 0H30V13L24 17V0Z" fill="#16191C"/>
<path d="M160.5 0H166.5V13L160.5 17V0Z" fill="#16191C"/>
<path d="M32 0H38V13L32 17V0Z" fill="#16191C"/>
<path d="M168.5 0H174.5V13L168.5 17V0Z" fill="#16191C"/>
<path d="M40 0H46V13L40 17V0Z" fill="#16191C"/>
<path d="M176.5 0H182.5V13L176.5 17V0Z" fill="#16191C"/>
<path d="M184.5 0H190.5V13L184.5 17V0Z" fill="#16191C"/>
<path d="M192.5 0H198.5V13L192.5 17V0Z" fill="#16191C"/>
<path d="M200.5 0H206.5V13L200.5 17V0Z" fill="#16191C"/>
<path d="M0 0H6V13L0 17V0Z" fill="#16191C"/>
<path d="M8 0H14V13L8 17V0Z" fill="#16191C"/>
</svg>
