<svg width="40" height="33" viewBox="0 0 40 33" fill="none" xmlns="http://www.w3.org/2000/svg">
<path d="M16.4421 19.494L16.4423 19.4941L16.4444 19.4889C16.4559 19.4601 16.4859 19.4395 16.5172 19.4395H23.156C23.1822 19.4395 23.2082 19.4608 23.2136 19.4767L23.2129 19.4769L23.2178 19.4874L29.4566 32.7929C29.4636 32.8164 29.4594 32.8433 29.4452 32.8652C29.4308 32.8872 29.4093 32.8997 29.384 32.8997H10.276V32.8996L10.2708 32.8999C10.2227 32.9024 10.1832 32.8555 10.2026 32.8013L16.4421 19.494Z" stroke="white" stroke-width="0.2"/>
<path d="M10.1062 29.1662L10.1061 29.1661L10.1041 29.171C10.0892 29.2074 10.0563 29.2217 10.019 29.214C10.0004 29.2101 9.98586 29.2011 9.97707 29.1909C9.96941 29.1821 9.9637 29.1697 9.96511 29.1501L9.96567 29.1423L9.965 29.1344L7.54048 0.961695C7.54124 0.935757 7.54994 0.920928 7.55861 0.91198C7.56876 0.901508 7.58426 0.893737 7.60313 0.891782C7.64052 0.887906 7.67626 0.906553 7.68836 0.951705L7.69065 0.960245L7.6944 0.96825L15.5225 17.6741C15.5245 17.6832 15.5237 17.6953 15.5178 17.711L10.1062 29.1662Z" stroke="white" stroke-width="0.2"/>
<path d="M0.571199 11.1969L0.577015 11.1889L0.581156 11.18L5.68449 0.127948C5.73172 0.0740341 5.81971 0.103576 5.81673 0.183695L5.81594 0.183666L5.81704 0.196167L8.50636 30.8058C8.50302 30.8416 8.47813 30.8657 8.44299 30.8727C8.4069 30.8799 8.37563 30.8662 8.36074 30.8312L8.3608 30.8311L8.35929 30.8279L0.283773 13.5701C-0.0397088 12.7854 0.0686193 11.8869 0.571199 11.1969Z" stroke="white" stroke-width="0.2"/>
<path d="M29.7083 29.1344L29.7077 29.1423L29.7082 29.1501C29.7096 29.1697 29.7039 29.1821 29.6963 29.191C29.6875 29.2012 29.6729 29.2102 29.6543 29.214C29.6171 29.2218 29.5841 29.2074 29.5692 29.171L29.5694 29.171L29.5671 29.1662L24.1555 17.711C24.1496 17.6953 24.1488 17.6832 24.1508 17.6741L31.9789 0.968263L31.9827 0.960257L31.985 0.951717C31.9967 0.907862 32.0311 0.889812 32.0692 0.894156C32.0885 0.896361 32.1046 0.904462 32.1151 0.915157C32.124 0.924223 32.1321 0.938288 32.1328 0.961771L29.7083 29.1344Z" stroke="white" stroke-width="0.2"/>
<path d="M31.3079 30.8279L31.3078 30.8279L31.3059 30.8324C31.2898 30.8718 31.2576 30.8843 31.2242 30.8777C31.1912 30.8711 31.1642 30.8469 31.1608 30.806L33.8501 0.196181L33.8509 0.196249L33.8504 0.183709C33.8478 0.112113 33.9318 0.0732178 33.9832 0.129061L39.0927 11.18L39.0968 11.189L39.1026 11.1969C39.6048 11.8865 39.7071 12.7848 39.3834 13.5701L31.3079 30.8279Z" stroke="white" stroke-width="0.2"/>
</svg>
